<?xml version="1.0" encoding="UTF-8"?>
<svg id="Layer_1" data-name="Layer 1" xmlns="http://www.w3.org/2000/svg" viewBox="0 0 2500 1056.52">
  <defs>
    <style>
      .cls-1 {
        fill: #bf2519;
      }

      .cls-2 {
        fill: #231f20;
      }
    </style>
  </defs>
  <path class="cls-1" d="M1742.34,437.83c-14.78,23.69-21.02,98.27-15.89,147.78,1.81,16.33,4.77,29.97,9.07,38.1,5.92,11.25,15.84,17.93,27.17,18.35,7.27.37,11.79-.87,148.41-44.79,0,0,60.71-19.37,60.96-19.5,15.15-3.86,25.33-17.77,26.31-35.55.99-18.22-8.42-34.32-23.92-40.14,0,0-42.82-17.45-42.9-17.45-146.8-60.55-153.41-62.92-160.8-63.01-11.33-.46-21.38,5.25-28.4,16.21M2070.74,888.97c2.38-6.9,2.67-11.62,3.08-155.13,0,0,.33-63.42.37-64.03.98-15.56-9.07-29.72-25.53-36.04-16.96-6.53-35.22-2.5-45.48,10.26,0,0-29.97,35.55-30.05,35.55-102.83,120.81-107.14,126.39-109.65,133.54-1.55,4.21-2.11,8.71-1.64,13.17.62,6.42,3.53,12.73,8.33,18.64,23.85,28.33,138.22,70.4,174.75,64.17,12.69-2.3,21.92-9.44,25.83-20.12M2302.75,839.01c34.48-13.75,109.69-109.44,114.98-146.27,1.85-12.81-2.17-23.85-11-30.91-5.79-4.35-10.18-6.03-146.72-50.86,0,0-59.89-19.79-60.67-20.17-14.5-5.62-31.04-.4-42.17,13.31-11.57,14.08-13.3,32.67-4.06,46.72l24.09,39.25c81.03,131.6,87.23,140.92,93.07,145.47,9.03,7.1,20.52,8.25,32.47,3.45M2232.19,500.18c155.17-37.6,161.17-39.57,167.28-43.59,9.4-6.32,14.12-16.92,13.3-29.81,0-.41.08-.86,0-1.31-3.98-38.1-70.73-137.19-103.61-153.28-11.67-5.58-23.32-5.22-33,1.27-6,3.9-10.39,9.82-93.48,123.44,0,0-37.52,51.11-37.97,51.6-9.89,12.03-10.06,29.27-.37,44.05,10.02,15.31,26.92,22.78,42.44,18.47,0,0-.62,1.11-.77,1.31,7.63-2.87,21.3-6.23,46.17-12.15M2076.44,372.07c-2.67-61.5-21.18-335.3-23.36-347.98-3.12-11.5-12.11-19.71-25-22.95-39.62-9.81-191.01,32.59-219.05,61.53-9.02,9.4-12.35,20.97-9.64,31.24,4.43,9.07,191.99,304.18,191.99,304.18,27.71,44.95,50.33,37.97,57.76,35.63,7.35-2.26,29.84-9.24,27.3-61.67"/>
  <path class="cls-2" d="M155.21,1021.07c19.54,18.1,56.57,23.23,101.56,14.08,42.17-8.33,68.31-27.17,93.47-107.18l125.32-393.76c6.48-20.9,6-39.04-1.43-52.5-6.04-10.84-16.09-18.19-30.3-21.97-22.33-6.12-50.2-5.5-67.77,54.52l-65.76,223.37s-133.95-253.04-134.03-253.08c-8.46-16.92-33.25-29.02-58.5-19-32.92,12.52-43.88,42.12-30.75,80.25,0,0,162.93,331.56,163.31,332.46,0,0,4.43,11.82,4.43,13.75,0,0,1.47,9,1.47,9.32-.33,12.77-4.6,23.52-12.23,30.7-7.51,7.07-17.94,10.76-30.13,10.27,0,0-25.41-.58-27.33-.58-26.11,3.21-42.53,18.19-45.17,41.34-1.83,14.91,2.97,28,13.84,38.02M797.19,647.72h-174.47c-4.72-3.44-7.02-9.23-3.49-26.64,2.22-9.15,4.6-17.36,11.58-28.86,2.25-3.44,4.59-6.97,6.85-10.5,12.77-16.14,30.05-26.48,49.72-31.08,61.33-14.98,104.1,16.17,111.04,69.33,3.32,23.2,1.14,27.75-1.23,27.75h0ZM904.42,617.34c-5.62-56.89-27.58-101.31-63.58-128.52-38.35-29.11-92.62-38.38-156.86-26.89-80.54,13.96-128.9,71.51-139.98,166.67-13.63,113.75,5.08,199.47,54.31,247.94,37.11,36.67,92,51.23,158.75,42.2,95.19-13.38,138-65.63,138-98.68,0-24.3-14.69-43.43-36.28-46.34-12.36-2.47-22.78,0-45.86,20.64-33.25,28.98-71.79,40.64-105.95,31.98-26.02-6.61-46.34-24.55-55.54-49.14,0,0-4.1-16.25-3.86-14.45-2.79-14.65-4.06-29.18,4.97-35.1l2.42-1.64h209.12c19.3,0,29.07-2.5,34.69-8.58,11.5-12.76,10.58-49.21,5.67-100.07M1093.98,316.44c-16.54-6.73-35.22-4.92-51.6,4.84-15.76,9.32-22.33,23.52-22.33,49.18v498.6s2.75,17.82,3.04,18.59c3.53,12.44,12.72,23.03,25.49,28.82,14.17,6.57,30.5,6.45,45.12-.41,18.18-7.88,28.9-26.07,28.9-48.6v-499.55s-3.17-24.13-3.17-24.58c-2.92-11.58-12.47-21.59-25.45-26.89M1488.57,822.88c-69.05,0-80.05-61.29-82.22-107.55-.12-.12-.91-27.1-.91-27.1,0,0,.78-20.02.78-20.81,4.47-80.05,21.02-111.62,63.26-120.4,28.37-6.57,50.04-3.37,66.3,9.72,24.42,19.67,35.17,61.29,34.19,130.75-.7,81.32-14.86,135.38-81.4,135.38h0ZM1493.69,456.8c-46.26-9.45-85.83-1.52-123.89,24.25,0,0-4.27,3.45-5.91,4.44l-3.41,1.72-10.42,4.67-2.97-11.7-2.5-4.23-.87-2.63-.28-.78s-2.54-3.41-2.92-3.94c-10.92-17-40.6-24.79-67.36-9.52-13.1,7.43-20.61,17.9-20.61,49.14v489.36c0,26.81,8.42,43.47,26.8,52.26,15.52,7.8,32.97,8.42,47.95,1.97,12.72-5.58,22.08-15.44,25.57-27.42l3.08-20.97v-84.69l-.91-13.62.37-4.02.53-1.93,5.05-16.13,15.32,10.17s3.86,2.55,5.5,4.27l4.6,3.03s5.33,3.12,5.33,3.12c.08,0,4.92,2.38,4.92,2.38,41.05,19.37,95.97,17.12,140.19-5.67,55.67-29.06,83.17-80.62,89.52-167.19,13.3-173.03-26.52-255.71-132.72-276.36M1708.22,861.18h5.71c4.63,0,8.99-.25,8.99-5.46,0-4.68-3.98-5.17-7.56-5.17h-7.14v10.62ZM1703.54,846.36h12.23c8.01,0,11.75,2.92,11.75,9.56,0,6-3.82,8.5-8.83,9.03l9.65,14.74h-5.05l-9.12-14.33h-5.95v14.33h-4.68v-33.33h0ZM1714.34,887.41c13.5,0,24.38-10.63,24.38-24.72s-10.87-24.5-24.38-24.5-24.42,10.67-24.42,24.79c-.12,13.36,10.62,24.3,23.98,24.42.15,0,.3,0,.44,0h0ZM1714.34,834.05c15.77,0,29.02,12.4,29.02,28.65s-13.26,28.9-29.02,28.9-29.02-12.36-29.02-28.61,13.22-28.94,29.02-28.94"/>
</svg>